<svg width="137px" height="82px" viewBox="0 0 133 80" xmlns="http://www.w3.org/2000/svg" xmlns:xlink="http://www.w3.org/1999/xlink"><defs><polygon id="path-1" points="0 0.519783784 119.271777 0.519783784 119.271777 37.5345933 0 37.5345933"></polygon><polygon id="path-3" points="0.486211464 0.468468468 132.380298 0.468468468 132.380298 45.3246126 0.486211464 45.3246126"></polygon></defs><g id="Symbols" stroke="none" stroke-width="1" fill="none" fill-rule="evenodd"><g id="logo_BAHCO"><g id="logo-BAHCO"><path d="M131.572563,67.4079279 C131.572563,59.9837838 125.664905,55.1585586 118.470617,55.1585586 C111.276329,55.1585586 105.368672,59.9837838 105.368672,67.4079279 C105.368672,74.9899099 111.245248,79.5311712 118.470617,79.5311712 C125.69671,79.5311712 131.572563,74.9899099 131.572563,67.4079279 M123.077188,67.5412613 C123.077188,70.3427027 121.183384,72.2655856 118.470617,72.2655856 C115.758574,72.2655856 113.86477,70.3427027 113.86477,67.5412613 C113.86477,64.9344144 115.628465,62.7513514 118.470617,62.7513514 C121.313492,62.7513514 123.077188,64.9344144 123.077188,67.5412613" id="Fill-1" fill="#292827"></path><path d="M24.9028043,62.0746667 C24.9028043,56.6310631 20.802212,55.5348468 16.2158804,55.5348468 L4.73667935,55.5348468 L4.73667935,79.1557477 L17.3312011,79.1557477 C21.4787772,79.1557477 26.0022228,77.4952072 26.0022228,72.6325045 C26.0022228,69.789982 24.3686359,67.9096216 21.7932065,67.0007928 L21.7932065,66.8126847 C23.8662717,66.1546667 24.9028043,64.1222342 24.9028043,62.0746667 M17.7981467,62.5157477 C17.9607826,65.0562883 16.2541902,64.8559279 14.8829891,64.8559279 L11.3158424,64.8559279 L11.3158424,60.7535856 L14.6762609,60.7535856 C16.0489076,60.7535856 17.6774348,60.6202523 17.7981467,62.5157477 M18.6922826,71.5535856 C18.7587826,73.5881802 16.5686196,73.6227748 15.0983913,73.6227748 L11.4358315,73.6227748 L11.4358315,69.0490811 L14.966837,69.0490811 C16.404538,69.0490811 18.5983152,68.6678198 18.6922826,71.5535856" id="Fill-3" fill="#292827"></path><path d="M103.066832,56.1304505 C101.243865,55.5034234 97.7938158,55.1589189 95.8457995,55.1589189 C88.9016092,55.1589189 82.8855277,60.6724324 82.8855277,67.5646847 C82.8855277,74.3005405 88.744756,79.5315315 95.4995658,79.5315315 C97.0384625,79.5315315 101.684066,79.2497297 103.066832,78.5924324 L102.168359,69.7571171 C100.785593,71.1048649 98.9235929,71.950991 96.9452179,71.950991 C94.3683429,71.950991 91.5565495,69.9452252 91.5565495,67.3448649 C91.5565495,64.7762162 94.243294,62.7401802 96.820169,62.7401802 C98.7674625,62.7401802 100.785593,63.8363964 102.168359,65.1207207 L103.066832,56.1304505 Z" id="Fill-5" fill="#292827"></path><polygon id="Fill-7" fill="#292827" points="57.0198467 79.1558919 65.3142761 79.1558919 65.3142761 70.9476036 71.1742272 70.9476036 71.1742272 79.1558919 79.4686565 79.1558919 79.4686565 55.5342703 71.1742272 55.5342703 71.1742272 64.3609369 65.3142761 64.3609369 65.3142761 55.5342703 57.0198467 55.5342703"></polygon><path d="M53.5663283,79.1558919 L45.4027304,55.5342703 L35.8831109,55.5342703 L27.9385293,79.1558919 L36.7620674,79.1558919 L37.4530891,76.2117477 L43.9570783,76.2117477 L44.7427902,79.1558919 L53.5663283,79.1558919 Z M43.3961652,70.8121081 L38.1282087,70.8121081 L40.5879859,62.3097658 L41.0469804,62.3076036 L43.3961652,70.8121081 Z" id="Fill-9" fill="#292827"></path><g id="Group-13" transform="translate(0.000000, 0.972973)"><mask id="mask-2" fill="white"><use xlink:href="#path-1"></use></mask><g id="Clip-12"></g><path d="M119.268979,22.5997838 C119.320299,21.4696937 118.654577,20.9255495 118.185462,20.1716757 C111.485587,12.501045 99.5040223,9.65852252 88.6052505,7.78248649 C86.2748592,6.75473874 85.2549516,4.6769009 83.8288158,2.7741982 C83.2772995,2.13708108 83.2144136,0.920504505 82.3838864,0.519783784 C80.0101255,2.32086486 76.2528755,2.68482883 73.2285712,1.8805045 C72.153006,2.40230631 71.2501962,3.15978378 70.058256,3.33563964 C68.5865821,3.69311712 66.9978103,3.26212613 65.5521582,3.08627027 C63.1285223,4.3950991 59.8158103,4.40951351 57.1977342,3.43654054 L55.8258103,4.54140541 C54.0368158,5.52735135 51.7801527,5.01708108 49.7576853,5.25996396 C49.4685549,6.58320721 51.8553266,9.18284685 50.5007505,10.2329369 C46.7449462,11.1093333 42.8713212,11.8761802 39.1328647,12.8138378 C32.8204245,13.8163604 27.4035658,16.8405045 20.7405549,16.981045 C13.8238321,14.9774414 7.50271793,11.3024865 -0.000216847826,10.9781622 C0.784772283,13.5814054 2.51883207,15.8300541 4.06206576,18.0217658 C5.26340272,19.6369009 7.24033207,21.019964 8.12579402,22.6350991 C6.31222337,25.9381622 4.21530489,29.1201441 2.75302772,32.5414054 C2.5723212,33.2866306 1.68830489,34.2206847 2.34679946,34.9659099 C6.03971793,34.2552793 9.60686467,33.2642883 13.1104027,32.1558198 C18.4108864,29.8783423 23.6925766,26.5118559 30.1221147,28.1075315 C30.004294,28.9774414 29.0335386,30.3511351 29.2858049,31.3305946 C29.3400168,32.2574414 30.3057125,32.5997838 30.8832505,33.0026667 L41.8008158,35.4596036 C46.3958212,35.868973 46.4738864,33.1965405 48.7305495,32.0354595 C58.9795005,33.5014054 69.4091582,34.7352793 80.245044,34.5291532 C81.7261147,34.7554595 81.6885277,36.7158198 82.8797451,37.2945586 C86.3934027,38.4390631 89.056294,35.197982 91.5579951,33.7363604 C100.541278,32.9529369 108.867511,30.4945586 116.533805,26.539964 C119.039843,25.530955 119.180794,23.8502342 119.268979,22.5997838 L119.268979,22.5997838 Z M17.9396038,26.6538378 C14.480881,28.5832072 11.6069245,29.9331171 7.5627125,30.5082523 L7.71884293,30.4318559 C8.63249511,27.8545586 10.2978864,25.4848288 11.6358375,23.0913153 C10.7655549,21.5929369 9.47025054,19.9460901 8.40263641,18.4996036 L5.38266902,15.2405045 C5.28870163,15.0091532 5.47808207,14.7763604 5.72673424,14.7763604 C10.1229625,15.7435676 13.4638647,16.8253694 17.3837505,18.8282523 C17.7719082,19.7673514 16.8062125,20.5659099 16.6667071,21.5086126 C16.1838592,23.2859099 16.820669,25.1100541 17.9396038,26.4152793 L17.9396038,26.6538378 Z M25.7634734,21.9972613 C25.332669,22.6228468 24.3582995,22.7295135 23.8942451,23.3550991 C23.0904625,24.0873514 22.8707234,25.1280721 22.3336636,26.065009 C21.2703864,26.4895135 20.6198429,25.3464505 19.9772505,24.877982 C19.2298484,23.739964 18.6776092,22.0787027 19.4336853,20.7727568 C19.9049679,19.8855495 20.8063321,19.0487928 21.7734734,18.9406847 C23.1793701,18.5241081 23.3340549,20.132036 24.1385603,20.7532973 C24.5686418,21.326991 25.2762886,21.536 25.7634734,21.9972613 L25.7634734,21.9972613 Z M29.4043484,17.4012252 C29.0877505,18.3914955 28.5514136,19.3327568 27.9745984,20.1615856 C26.9431255,20.0642883 26.1378973,19.3896937 25.7634734,18.6041081 L25.8126255,18.1925766 C27.0566092,17.9259099 28.2181908,17.6635676 29.4043484,17.4012252 L29.4043484,17.4012252 Z M29.3906147,26.0938378 L25.4736201,25.9994234 C25.1642505,25.6361802 25.4244679,25.0149189 25.7338375,24.5990631 C26.4320875,23.8098739 27.3507995,23.0841081 28.3663701,23.1316757 C28.6345386,23.6505946 28.7885005,24.2185225 29.0646201,24.741045 C29.1795495,25.2578018 30.2435495,25.6203243 29.3906147,26.0938378 L29.3906147,26.0938378 Z M84.3152777,33.8487928 C84.5126092,30.5392432 88.4765875,30.3316757 90.8604679,29.3832072 L91.3650005,29.3788829 C91.2710332,30.4188829 90.4065332,31.0624865 89.7408103,31.8048288 C88.5344136,32.9882523 87.2246527,34.126991 85.5874516,34.6848288 C84.9795549,34.7785225 84.467794,34.3381622 84.3152777,33.8487928 L84.3152777,33.8487928 Z M83.0127451,25.1280721 C83.6069082,24.2956396 85.3503647,22.7785225 86.3659353,22.5608649 C87.9272397,22.403027 88.5026092,22.5428468 89.7856255,22.9017658 L90.3111201,26.8736577 L90.3111201,27.1100541 C88.3211799,28.1039279 86.0854788,28.5752793 84.2155277,29.7356396 L83.6799136,29.6275315 C82.9158864,28.2819459 82.2169136,26.6956396 83.0127451,25.1280721 L83.0127451,25.1280721 Z M80.4040658,25.0033874 C79.1196038,24.7396036 77.7296092,24.1796036 77.1368918,22.8736577 C76.6410332,21.4242883 76.471169,19.7587027 77.4867397,18.4513153 C78.4943592,17.2541982 80.2255277,16.8837477 81.7694842,17.0805045 C82.3622016,17.6549189 82.639044,18.483027 83.175381,19.1086126 L84.8407723,20.7172613 C82.971544,21.3471712 81.1521908,23.1778018 80.4040658,25.0033874 L80.4040658,25.0033874 Z M81.7506908,13.5266306 C80.3317832,13.357982 80.0975875,12.7878919 79.0718973,11.7644685 C78.6721745,11.3104144 78.1025875,10.9118559 78.5594136,10.059964 L82.9823864,10.3345586 L83.5736582,10.6848288 C82.7337342,11.5547387 81.9848864,12.4282523 81.7506908,13.5266306 L81.7506908,13.5266306 Z M77.6428701,30.1896937 C78.1221038,29.3284324 78.8803484,28.6819459 79.900256,28.5111351 C81.0936418,28.6776216 80.7401799,30.1284324 81.5172179,30.7028468 C81.8056255,30.9896937 82.6549462,31.2729369 82.1222234,31.9194234 C81.5172179,33.8257297 79.1174353,32.7194234 77.4766201,32.7893333 C76.5730875,32.0988829 77.4086745,31.0033874 77.6428701,30.1896937 L77.6428701,30.1896937 Z M70.9747995,29.0668108 C70.4290658,27.406991 70.9588973,25.6332973 72.1602342,24.4873514 C72.7131962,23.9569009 73.5184245,23.5446486 74.3171473,23.597982 L75.2214027,25.3060901 C75.9196527,26.0296937 76.6793429,26.6552793 77.589381,27.1208649 C76.4357505,28.2668108 75.091294,29.4725766 74.7877071,31.2923964 C74.6055549,31.757982 74.0431962,31.4502342 73.7316582,31.3536577 C72.5845332,30.828973 71.3846418,30.3201441 70.9747995,29.0668108 L70.9747995,29.0668108 Z M71.9383266,21.6296937 C70.7037397,22.3605045 68.7889734,24.4801441 68.6993429,26.0837477 C67.6830495,26.6696937 66.4853266,25.6304144 65.735756,25.061045 C64.5575495,23.9698739 63.6814842,21.6628468 64.3233538,19.8358198 C64.7534353,18.2718559 66.6183266,16.6372613 68.1290332,16.4239279 C68.9263103,16.5817658 68.2439625,17.6743784 69.3527777,19.1972613 C70.1659571,20.0750991 71.0275658,20.748973 71.9860332,21.370955 L71.9383266,21.6296937 Z M67.4466853,29.1525766 C67.7799082,28.877982 68.1955332,28.483027 68.6993429,28.5846486 C69.3737397,29.6253694 69.7206962,30.7093333 70.386419,31.585009 L70.8649299,32.2214054 L65.735756,31.7666306 C65.3374788,30.890955 66.9255277,29.757982 67.4466853,29.1525766 L67.4466853,29.1525766 Z M60.1425277,24.2848288 C60.7359679,23.7796036 62.1093375,22.4513153 62.3854571,23.9965405 C62.9868484,26.1587027 64.5467071,27.1532973 66.3682288,28.1478919 C65.0346147,29.092036 64.0103701,30.2624865 63.0027505,31.6534775 C61.2882071,31.5453694 59.7283484,30.6163604 59.0207016,29.0055495 C58.5335168,27.2851892 58.7445821,25.5129369 60.1425277,24.2848288 L60.1425277,24.2848288 Z M53.6544408,29.8653694 C53.9146582,29.0293333 54.9381799,28.9716757 55.6855821,28.7093333 C56.8153592,28.446991 57.2454408,29.5374414 57.7333484,30.1594234 L57.6928701,30.6322162 C56.3433538,30.5796036 54.8890277,30.3295135 53.6544408,29.8653694 L53.6544408,29.8653694 Z M48.7551255,23.9424865 C49.3319408,23.4732973 49.8690005,22.7943784 50.7783158,22.8477117 C51.3233266,23.468973 51.2741745,24.3547387 51.8105114,24.9731171 C52.3475712,25.9129369 53.4202451,26.4296937 54.2247505,27.0495135 C53.898756,27.6743784 53.0949734,27.6311351 52.7292234,28.1954595 C51.9810984,28.5644685 51.8842397,29.763027 50.9091473,29.7673514 C49.7952723,29.6635676 48.5520114,29.6138378 48.1212071,28.5262703 C47.3571799,27.0769009 47.7229299,25.1994234 48.7551255,23.9424865 L48.7551255,23.9424865 Z M43.254419,28.5017658 C43.4647614,27.8242883 44.2938429,27.7774414 44.8995712,27.5648288 C45.814669,27.3529369 46.1630712,28.2365405 46.5584571,28.7396036 L46.5252071,29.1237477 C45.432294,29.0797838 44.2540875,28.8772613 43.254419,28.5017658 L43.254419,28.5017658 Z M32.2385495,29.9814054 C32.3975712,28.0729369 36.7150114,30.2098739 38.9008375,30.4462703 L44.8034353,31.5251892 C44.8475277,32.5154595 43.5934245,33.6592432 42.5113538,33.4884324 L39.5593321,32.9976216 C37.1169027,32.2660901 34.2892071,32.0246486 31.9486962,31.0927568 C31.6494462,30.9486126 32.1308484,30.3482523 32.2385495,29.9814054 L32.2385495,29.9814054 Z M40.6081527,28.243027 C39.0475712,27.8783423 37.722631,27.7341982 36.3904625,26.9550991 C36.2683049,25.8113153 36.642006,24.7129369 37.6004734,24.1464505 C38.1534353,23.6787027 38.6001418,23.406991 39.2420114,23.6138378 L40.2257777,25.5374414 C40.8676473,26.3122162 41.5095168,26.6235676 42.256919,27.0913153 C42.1672886,27.8156396 41.2001473,27.9273514 40.6081527,28.243027 L40.6081527,28.243027 Z M36.7663321,21.9316757 C35.3279082,22.6632072 34.2255984,24.3122162 33.9090005,25.9842883 C33.5432505,26.5543784 32.9093321,26.1197838 32.4785277,26.1197838 C31.1781636,25.4451892 30.7083266,23.4156396 30.7574788,21.6931171 C30.586169,20.0325766 30.4596745,18.9363604 31.4398266,17.6578018 C32.6136962,16.126991 34.3716092,15.923027 34.5646038,18.2387027 L34.6311038,18.4678919 C34.9975766,19.7680721 35.9618266,20.8902342 36.7663321,21.9316757 L36.7663321,21.9316757 Z M42.7122995,15.7154595 C42.2540277,15.9994234 41.4719299,16.8592432 41.0006473,17.3060901 C40.2720386,17.9972613 39.8043701,18.3338378 39.2911636,20.2041081 C39.1227451,21.1785225 38.088381,19.4754595 37.4956636,18.8008649 C37.0728103,17.9705946 36.6832071,16.8844685 37.007756,15.8934775 C38.2105386,15.1741982 38.2828212,15.2426667 40.1433755,14.7864505 C42.3458266,14.2466306 42.2843864,15.0696937 42.7122995,15.7154595 L42.7122995,15.7154595 Z M45.8247886,13.7255495 C45.7467234,14.2603243 45.714919,14.7331171 45.5269842,15.1864505 L45.220506,15.2693333 C44.3856418,15.4495135 44.3307071,14.9637477 43.9938701,14.4606847 C43.8456908,14.2408649 44.1709625,14.1723964 44.3169734,14.0787027 C44.8619842,13.9158198 45.2515875,13.7334775 45.8247886,13.7255495 L45.8247886,13.7255495 Z M48.1291582,21.0523964 L48.291794,21.265009 C46.7471147,22.3122162 45.6346853,24.1824865 44.7817505,25.8552793 C43.3830821,25.443027 42.0024842,24.4570811 41.7256418,22.8491532 C41.4487995,21.6001441 41.8803266,20.243027 42.6277288,19.259964 C43.4242832,18.3619459 44.0907288,17.8408649 45.1713538,17.7875315 C45.2848375,19.2945586 46.7803647,20.5392432 48.1291582,21.0523964 L48.1291582,21.0523964 Z M52.4993647,14.508973 C53.1412342,15.0783423 53.7353973,15.5482523 54.3844951,15.9648288 C53.1578592,16.7439279 51.7685875,17.6354595 51.288631,19.1424865 C49.8993592,19.3565405 48.4934625,18.3713153 47.6969082,17.2325766 C47.0384136,15.9878919 47.5255984,14.4196036 48.2166201,13.3291532 C49.0702777,13.0091532 49.9723647,12.957982 50.939506,12.901045 C51.9145984,12.8974414 51.8582179,14.0923964 52.4993647,14.508973 L52.4993647,14.508973 Z M53.5864951,12.8369009 C53.4318103,12.4232072 53.9312832,12.3886126 54.1893321,12.2588829 C55.1217777,12.0844685 56.2089082,11.8423063 57.1594245,11.9302342 C56.936794,12.8023063 56.5103266,13.6455495 56.1178321,14.3626667 C54.9230005,14.6113153 54.1358429,13.7623063 53.5864951,12.8369009 L53.5864951,12.8369009 Z M57.9082723,8.57311712 C57.3112179,9.19581982 57.1312342,8.91185586 55.3639245,9.37816216 C54.6244734,9.57275676 53.7758755,9.75798198 53.0848538,9.37816216 C52.9626962,8.99041441 52.2326418,6.87293694 52.5087614,6.54933333 C54.3382342,6.76410811 55.8200277,6.48014414 57.3112179,6.08230631 C57.8475549,6.08230631 57.8027397,7.98789189 57.9082723,8.57311712 L57.9082723,8.57311712 Z M59.7211201,21.314018 C58.437381,22.2574414 56.8934245,23.7190631 56.4221418,25.3918559 C55.7144951,25.6008649 55.0162451,25.0322162 54.3823266,24.772036 C53.4072342,23.9929369 53.0255821,22.7446486 52.9193266,21.6570811 C52.8542723,20.0952793 53.877794,18.6336577 55.3162179,17.997982 C56.974381,16.9039279 57.0481092,19.3478919 57.8923701,19.868973 C58.3152234,20.496 59.2823647,20.6970811 59.7211201,21.314018 L59.7211201,21.314018 Z M63.3113973,11.4300541 C64.0371147,11.9338378 63.8368918,13.1107748 64.4469571,13.7774414 C64.8625821,14.3331171 65.2406201,14.7237477 65.7971962,15.1057297 L65.6663647,15.3983423 C64.0913266,16.2985225 62.5242397,17.4271712 61.7132288,19.3305946 C60.6947668,19.6123964 59.7218429,18.8318559 59.064794,18.0534775 C57.9458592,16.6588829 58.2400495,14.7554595 58.8024082,13.1302342 C59.4435549,11.0567207 61.6366092,11.2138378 63.3113973,11.4300541 L63.3113973,11.4300541 Z M65.166169,8.00086486 L60.2957668,8.5132973 C59.9307397,8.12843243 59.7529245,6.49672072 59.8584571,5.9778018 C62.0890984,6.02536937 63.7096745,5.85023423 65.2926636,5.51077477 C66.1065658,5.31113514 65.7755114,6.7150991 66.0509082,7.22248649 C66.2547451,7.99798198 65.6056473,7.92518919 65.166169,8.00086486 L65.166169,8.00086486 Z M66.4499082,11.0192432 C67.6281147,10.5954595 69.0665386,10.5918559 70.3502777,10.5341982 L70.4652071,10.6343784 C69.6187777,11.6325766 68.7000658,12.5183423 68.2873321,13.714018 C67.7502723,13.9237477 67.4177723,13.2484324 67.0917777,12.9421261 C66.7267505,12.4196036 66.068256,11.7457297 66.4499082,11.0192432 L66.4499082,11.0192432 Z M73.8697179,6.83113514 C73.9427234,7.63834234 73.2039951,7.2996036 72.797044,7.37455856 C71.1641799,7.11365766 68.2403484,8.52771171 68.0675929,6.10753153 C67.9454353,5.77095495 68.1160223,5.43221622 68.3921418,5.43221622 C70.2953429,5.17347748 71.3745223,5.08410811 72.797044,4.53563964 L73.8697179,6.83113514 Z M76.2796201,11.456 C76.8658321,12.754018 77.8893538,13.2750991 78.7437342,14.1536577 L78.9902179,14.6927568 C76.8940223,15.1677117 74.8607125,17.1583423 74.2188429,18.9233874 C73.5769734,19.1864505 73.0384679,18.6480721 72.3792505,18.2862703 C70.6090495,17.3068108 70.6090495,15.2707748 70.868544,13.4523964 C71.1287614,12.4621261 71.9809734,11.5215856 73.0059408,11.2585225 C74.0215114,10.9435676 75.411506,10.9356396 76.2796201,11.456 L76.2796201,11.456 Z M83.6748538,7.10717117 L77.2395332,6.99618018 C76.4429788,6.45852252 75.8329136,5.16987387 75.7194299,3.95401802 C77.6782886,3.60735135 79.4788484,3.52446847 81.4644516,2.8996036 L81.8634516,2.78645045 C82.4496636,4.20915315 83.6018484,5.41059459 83.6748538,7.10717117 L83.6748538,7.10717117 Z M92.7506582,11.412036 C91.3686147,13.6023063 89.8629679,17.043027 89.4003592,19.5424865 C88.1657723,20.1161802 87.460294,19.6484324 86.4353266,18.9738378 C84.7258429,17.9511351 84.1656527,17.2275315 83.6264245,15.4178018 C83.337294,14.4462703 84.7258429,12.4426667 85.4168647,11.7104144 C87.1718864,9.72771171 89.9063375,10.1752793 92.5959734,11.1042883 L92.7506582,11.412036 Z M103.704365,16.9932973 C103.704365,18.0657297 102.831191,18.9356396 101.756348,18.9356396 C100.680783,18.9356396 99.9160332,18.0635676 99.9160332,16.9911351 C99.9160332,15.917982 100.787761,15.0487928 101.862604,15.0487928 C102.938892,15.0487928 103.704365,15.9201441 103.704365,16.9932973 L103.704365,16.9932973 Z M116.342256,24.2653694 C112.319006,26.6696937 107.692919,28.3035676 103.058158,29.301045 C99.6384679,29.8019459 96.0481908,29.050955 94.1305332,26.5075315 C91.7611092,24.2293333 91.7177397,20.2221261 92.6725929,17.0495135 C93.2349516,15.1821261 94.1471582,13.3507748 95.5985929,11.8783423 C97.7200875,11.9806847 99.629794,12.6221261 101.481674,13.3313153 L101.699968,13.5965405 C100.454539,13.8538378 99.2907886,14.1442883 98.7298755,15.4033874 C98.0077723,16.5961802 98.2643755,17.9792432 98.935881,19.1187027 C99.6153375,19.9345586 100.995935,20.6624865 102.354126,20.5039279 C103.687017,20.219964 104.875343,19.283027 105.197723,17.8278919 C105.341566,16.7936577 105.122549,15.7060901 104.509593,14.8923964 C104.612957,14.4570811 105.011234,14.723027 105.283017,14.723027 C109.552751,16.452036 113.083033,18.3432072 116.112397,21.5922162 C117.710566,23.1295135 116.342256,24.2653694 116.342256,24.2653694 L116.342256,24.2653694 Z" id="Fill-11" fill="#E05B00" mask="url(#mask-2)"></path></g><g id="Group-16" transform="translate(0.000000, 0.252252)"><mask id="mask-4" fill="white"><use xlink:href="#path-3"></use></mask><g id="Clip-15"></g><path d="M82.653356,45.3246126 C82.3801277,45.3246126 82.100394,45.3008288 81.8098179,45.2763243 C81.3529918,45.2374054 80.8788179,45.1977658 80.437894,45.2583063 L80.3872962,45.2647928 L80.3366984,45.2633514 C72.5316223,45.0428108 64.5458397,44.3934414 56.8238886,43.7656937 C44.1194973,42.7321802 30.9821332,41.6633514 18.8596168,42.5707387 C13.8041712,42.8338018 12.263106,43.0608288 5.77791033,44.0201081 L2.84251359,44.4460541 C1.80742663,44.4554234 0.997138587,44.0143423 0.62705163,43.2748829 L0.607535326,43.2323604 C0.442008152,42.8265946 0.445622283,42.4056937 0.61982337,42.0143423 C0.848236413,41.4983063 1.38891033,41.0456937 2.06547554,40.7992072 L2.18763315,40.7689369 C13.7579103,39.075964 19.0540571,38.9166847 27.0723668,38.6752432 L28.3589973,38.6363243 C37.8793397,38.5181261 47.4618451,39.3037117 57.6059864,40.1354234 C72.6328179,41.3671351 88.1714103,42.6420901 103.280644,40.6910991 C108.393193,40.1238919 125.26034,37.2006486 128.221758,23.3087568 C128.90266,17.0716396 125.779329,11.4651532 122.489747,9.35055856 C119.563747,7.38299099 117.828242,6.69758559 115.763128,6.36821622 C117.475503,8.27740541 119.241367,10.2536216 120.369698,12.7242523 L120.39066,12.7768649 C120.400057,12.8042523 120.413068,12.828036 120.424633,12.8518198 C120.497639,13.0046126 120.634253,13.2871351 120.525829,13.6856937 L120.32416,14.4301982 L119.638198,14.0727207 C118.384818,13.4204685 117.260101,12.6334414 116.172247,11.8738018 C115.216671,11.2064144 114.228568,10.5152432 113.126258,9.89181982 C107.581459,6.57073874 101.652117,4.37254054 94.4513234,2.09362162 L94.0776223,1.97542342 L93.8694484,0.468396396 L95.9280571,0.608216216 C103.125959,1.09542342 110.569622,1.59992793 117.416954,2.87704505 L117.472611,2.8892973 C124.053943,4.75236036 131.494715,10.6262342 132.283318,19.1228108 C133.284432,28.435964 126.365541,36.8330811 119.345454,40.004973 C109.413101,45.2698378 97.1496332,45.2885766 85.2902255,45.3065946 C84.5168016,45.3087568 83.7448234,45.3094775 82.9735679,45.3123604 C82.8680353,45.3202883 82.7610571,45.3246126 82.653356,45.3246126" id="Fill-14" fill="#E05B00" mask="url(#mask-4)"></path></g><path d="M128.890878,45.2580901 C127.169829,45.2580901 125.831155,43.8800721 125.831155,42.2065586 C125.831155,40.533045 127.187177,39.1384505 128.907503,39.1384505 C130.628552,39.1384505 131.968672,40.5157477 131.968672,42.189982 C131.968672,43.8634955 130.61265,45.2580901 128.890878,45.2580901 M128.907503,39.3748468 C127.297047,39.3748468 126.084867,40.6512432 126.084867,42.2065586 C126.084867,43.7618739 127.288373,45.0216937 128.890878,45.0216937 C130.502058,45.0216937 131.714237,43.7452973 131.714237,42.189982 C131.714237,40.6346667 130.510009,39.3748468 128.907503,39.3748468 M129.408422,42.3586306 L130.442063,43.6602523 L129.967166,43.6602523 L128.984123,42.4177297 L128.08565,42.4177297 L128.08565,43.6602523 L127.721346,43.6602523 L127.721346,40.5669189 L129.11134,40.5669189 C129.772726,40.5669189 130.256297,40.9135856 130.256297,41.4627748 C130.256297,41.9701622 129.907895,42.2656577 129.408422,42.3586306 M129.093992,40.9135856 L128.08565,40.9135856 L128.08565,42.0797117 L129.052791,42.0797117 C129.518291,42.0797117 129.873922,41.8771892 129.873922,41.4800721 C129.873922,41.1247568 129.577563,40.9135856 129.093992,40.9135856" id="Fill-17" fill="#FEFEFE"></path></g></g></g></svg>
