<?xml version="1.0" encoding="utf-8"?>
<!-- Generator: Adobe Illustrator 19.2.1, SVG Export Plug-In . SVG Version: 6.00 Build 0)  -->
<svg version="1.1" id="Ebene_1" xmlns="http://www.w3.org/2000/svg" xmlns:xlink="http://www.w3.org/1999/xlink" x="0px" y="0px"
	 viewBox="0 0 141 54" style="enable-background:new 0 0 141 54;" xml:space="preserve">
<style type="text/css">
	.st0{clip-path:url(#SVGID_2_);fill-rule:evenodd;clip-rule:evenodd;fill:#1D1D1B;}
	.st1{fill-rule:evenodd;clip-rule:evenodd;fill:#0094CC;}
	.st2{fill:#FFD400;}
	.st3{clip-path:url(#SVGID_4_);fill:#1D1D1B;}
</style>
<g>
	<defs>
		<rect id="SVGID_1_" y="4.2" width="141" height="45.7"/>
	</defs>
	<clipPath id="SVGID_2_">
		<use xlink:href="#SVGID_1_"  style="overflow:visible;"/>
	</clipPath>
	<path class="st0" d="M73.9,4.3h11.4v23.4H73.9V4.3z M58.2,4.3H70v4.9l-8.3,0c-1.2,0-1.3,1.3,0.2,1.7c4.2,1,9.3,2.9,9.1,8.9
		c-0.2,4.9-4.6,7.9-7.5,7.9H50.4v-5.9l9.1,0c1.2,0,1.3-1.2,0.4-1.5c-7-1.9-9.5-4.5-9.5-8.6C50.4,8.1,52.8,4.3,58.2,4.3 M11.6,4.2
		l11.9,0v4.7h-8.9c-1.2-0.1-2.2,0-2.2,1.5l0,9.4c0,2.1,2.7,2,2.7,0l0-7l8.4,0v8.3c-2.2,3.7-5.4,7.3-11.2,7.2C5.4,28.2,0.1,23,0,16.5
		C-0.1,10.1,5,4.4,11.6,4.2 M27,4.3l20.3,0v5h-9.9l0,3.8l8.7,0v4.6l-8.7,0l0,4h9.9v6H27V4.3z M89.9,4.3h13.3c5.3,0,9.1,2.7,9.1,7.3
		c0,5.8-4.4,8-8.1,8h-3.9v8.1H89.9V4.3z M117.5,4.3h9.8l7.7,23.4h-11l-1.1-3.1l-7.6,0l-1.1,3.1l-5,0L117.5,4.3z M117.1,19.6l2.1-6.1
		l2.1,6.1H117.1z M100.2,8.9c1.1,0,3.3,0.8,3.2,2.9c0,2.1-1.6,3.2-3.2,3.1V8.9z"/>
</g>
<polygon class="st1" points="33.9,49.8 9.4,49.8 27,32.3 51.4,32.3 "/>
<polygon class="st2" points="51.4,32.3 33.9,49.8 46.1,49.8 63.7,32.3 "/>
<g>
	<defs>
		<rect id="SVGID_3_" y="4.2" width="141" height="45.7"/>
	</defs>
	<clipPath id="SVGID_4_">
		<use xlink:href="#SVGID_3_"  style="overflow:visible;"/>
	</clipPath>
	<path class="st3" d="M136.6,4.3c-2.3,0.1-4.3,1.9-4.3,4.3c0,2.2,1.5,4.4,4.6,4.4c2.4,0,4.2-2.2,4.2-4.5
		C140.9,6.4,139.2,4.2,136.6,4.3 M136.6,4.8c2.4,0,3.8,1.8,3.9,3.7c0.1,2-1.5,3.9-3.6,4c0,0-0.1,0-0.2,0c-2.4,0-3.9-2.1-3.9-4
		C132.9,6.7,134.3,4.9,136.6,4.8 M135,6.2v4.9h0.6V8.8h1.1l1.4,2.3h0.7l-1.5-2.3c1.1,0,1.5-0.7,1.5-1.4c0-0.6-0.4-1.3-1.5-1.3H135z
		 M138.3,7.5c0,0.8-0.6,0.9-1.1,0.9h-1.5V6.7h1.4C137.8,6.7,138.3,6.8,138.3,7.5"/>
</g>
</svg>
